<!DOCTYPE svg PUBLIC "-//W3C//DTD SVG 1.1//EN" "http://www.w3.org/Graphics/SVG/1.1/DTD/svg11.dtd">
<!-- Uploaded to: SVG Repo, www.svgrepo.com, Transformed by: SVG Repo Mixer Tools -->
<svg fill="#ed719e" height="256px" width="256px" version="1.1" id="Capa_1" xmlns="http://www.w3.org/2000/svg" xmlns:xlink="http://www.w3.org/1999/xlink" viewBox="0 0 459.799 459.799" xml:space="preserve" stroke="#ed719e">
<g id="SVGRepo_bgCarrier" stroke-width="0"/>
<g id="SVGRepo_tracerCarrier" stroke-linecap="round" stroke-linejoin="round"/>
<g id="SVGRepo_iconCarrier"> <path d="M346.619,296.042v-97.2c0-62.318-38.26-115.861-92.52-138.394c-1.793-12.047-12.178-21.288-24.724-21.288h-14.161V25 c0-13.807-11.192-25-25-25s-25,11.193-25,25v14.16h-14.161c-0.117,0-0.231,0.007-0.348,0.009V38.76c0-5.514-4.486-10-10-10h-26.707 c-5.514,0-10,4.486-10,10v50.802c0,5.514,4.486,10,10,10h26.707c5.514,0,10-4.486,10-10v-0.41c0.116,0.001,0.231,0.009,0.348,0.009 h14.161v24.368c-38.917,10.934-67.533,46.736-67.533,89.099v164.639c0,51.023,41.51,92.533,92.533,92.533 s92.533-41.51,92.533-92.533V202.627c0-42.363-28.616-78.166-67.533-89.099V89.16h14.161c0.408,0,0.814-0.011,1.217-0.031 c46.869,14.448,81.027,58.165,81.027,109.712v97.2c-9.301,5.842-15.5,16.187-15.5,27.958c0,18.196,14.804,33,33,33s33-14.804,33-33 C362.119,312.229,355.919,301.884,346.619,296.042z"/> </g>
</svg>