<!DOCTYPE svg PUBLIC "-//W3C//DTD SVG 1.1//EN" "http://www.w3.org/Graphics/SVG/1.1/DTD/svg11.dtd">
<!-- Uploaded to: SVG Repo, www.svgrepo.com, Transformed by: SVG Repo Mixer Tools -->
<svg fill="#583400" height="256px" width="256px" version="1.1" id="Icons" xmlns="http://www.w3.org/2000/svg" xmlns:xlink="http://www.w3.org/1999/xlink" viewBox="0 0 32 32" xml:space="preserve" stroke="#583400">
<g id="SVGRepo_bgCarrier" stroke-width="0"/>
<g id="SVGRepo_tracerCarrier" stroke-linecap="round" stroke-linejoin="round"/>
<g id="SVGRepo_iconCarrier"> <g> <path d="M16,26c-4.3,0-7.7-1.2-9.2-3C6.2,23.8,6,24.5,6,25c0,2.9,4.3,5,10,5s10-2.1,10-5c0-0.5-0.2-1.2-0.8-2 C23.7,24.8,20.3,26,16,26z"/> <path d="M25,12V9.2c0.6-0.7,1-1.4,1-2.2c0-2.9-4.3-5-10-5S6,4.1,6,7c0,0.8,0.4,1.6,1,2.2V12c-0.6,0-1,0.4-1,1c0,2.7,3.8,4.8,9.1,5 c0.3,0,0.6,0,0.9,0s0.6,0,0.9,0c5.2-0.2,9.1-2.3,9.1-5C26,12.4,25.6,12,25,12z"/> <path d="M25,18v-0.8c-1.6,1.7-4.9,2.8-9,2.8s-7.4-1.1-9-2.8V18c-0.6,0-1,0.4-1,1c0,2.7,3.8,4.8,9.1,5c0.3,0,0.6,0,0.9,0 s0.6,0,0.9,0c5.2-0.2,9.1-2.3,9.1-5C26,18.4,25.6,18,25,18z"/> </g> </g>
</svg>