<!DOCTYPE svg PUBLIC "-//W3C//DTD SVG 1.1//EN" "http://www.w3.org/Graphics/SVG/1.1/DTD/svg11.dtd">
<!-- Uploaded to: SVG Repo, www.svgrepo.com, Transformed by: SVG Repo Mixer Tools -->
<svg fill="#002e7a" height="800px" width="800px" version="1.1" id="Layer_1" xmlns="http://www.w3.org/2000/svg" xmlns:xlink="http://www.w3.org/1999/xlink" viewBox="0 0 512 512" xml:space="preserve" stroke="#002e7a">
<g id="SVGRepo_bgCarrier" stroke-width="0"/>
<g id="SVGRepo_tracerCarrier" stroke-linecap="round" stroke-linejoin="round"/>
<g id="SVGRepo_iconCarrier"> <g> <g> <path d="M507.494,426.066L282.864,53.537c-5.677-9.415-15.87-15.172-26.865-15.172c-10.995,0-21.188,5.756-26.865,15.172 L4.506,426.066c-5.842,9.69-6.015,21.774-0.451,31.625c5.564,9.852,16.001,15.944,27.315,15.944h449.259 c11.314,0,21.751-6.093,27.315-15.944C513.508,447.84,513.336,435.755,507.494,426.066z M321.683,279.866l-84.443,115.46 c-1.921,2.627-5.414,3.561-8.39,2.244c-2.976-1.317-4.634-4.529-3.981-7.718l17.556-85.832H199.12 c-4.181,0-8.007-2.349-9.899-6.077c-1.892-3.728-1.53-8.204,0.938-11.578l84.443-115.461c1.921-2.627,5.414-3.561,8.39-2.244 c2.977,1.317,4.634,4.529,3.981,7.718l-17.556,85.832h43.304c4.181,0,8.007,2.349,9.899,6.077 C324.514,272.015,324.151,276.491,321.683,279.866z"/> </g> </g> </g>
</svg>