<svg xmlns="http://www.w3.org/2000/svg" viewBox="0 0 122.88 122.88"><defs><style>.a{fill:#4a334b;}.b{fill:#fff;}</style></defs><title>node-red</title><path class="a" d="M15.36,0h92.16a15.36,15.36,0,0,1,15.36,15.36v92.16a15.36,15.36,0,0,1-15.36,15.36H15.36A15.36,15.36,0,0,1,0,107.52V15.36A15.36,15.36,0,0,1,15.36,0Z"/><path class="b" d="M24.69,56.66a10,10,0,0,0-10.06-10H0v6.86H14.63a3.32,3.32,0,0,1,3.47,3.25v9.94a3.57,3.57,0,0,1-3.47,3.54H0V76.8H14.63A10.07,10.07,0,0,0,24.69,66.68V62c23.12.33,29.85,6.34,37.21,12.78,7.08,6.2,15,12.86,35.74,13v2.28a10.3,10.3,0,0,0,10.17,10.27h15.07V93.26H107.81a3.1,3.1,0,0,1-3.31-3.14V80.18a3.3,3.3,0,0,1,3.31-3.38h15.07V70.22H107.81a10,10,0,0,0-10.17,10v2.35C78.07,82.47,72.51,77,65.39,70.82c-6.07-5.31-13.21-11.15-28.93-13.28l.39-.35c3-2.78,4.66-6.13,6.26-9s3.1-5.31,5.56-7c2-1.37,4.84-2.39,9.2-2.58V40.9A10.34,10.34,0,0,0,68,51.29h40.41A10.34,10.34,0,0,0,118.49,40.9V31a10.1,10.1,0,0,0-10.11-10.11H68A10.09,10.09,0,0,0,57.87,31v2.31c-5.26.21-9.25,1.49-12.2,3.51-3.57,2.45-5.55,5.8-7.21,8.82s-3.07,5.72-5.2,7.67c-1.85,1.7-4.42,3-8.57,3.5v-.11ZM68,27.7h40.41A3.14,3.14,0,0,1,111.63,31V40.9a3.14,3.14,0,0,1-3.25,3.26H68a3.36,3.36,0,0,1-3.51-3.26V31A3.36,3.36,0,0,1,68,27.7Z"/></svg>